<svg width="120" height="120" viewBox="0 0 120 120" fill="none" xmlns="http://www.w3.org/2000/svg">
  <defs>
    <linearGradient id="hexGradient" x1="0%" y1="0%" x2="100%" y2="100%">
      <stop offset="0%" style="stop-color:#00d4ff;stop-opacity:1" />
      <stop offset="50%" style="stop-color:#0066cc;stop-opacity:1" />
      <stop offset="100%" style="stop-color:#003d7a;stop-opacity:1" />
    </linearGradient>
    <linearGradient id="innerGradient" x1="0%" y1="0%" x2="100%" y2="100%">
      <stop offset="0%" style="stop-color:#ffffff;stop-opacity:0.2" />
      <stop offset="100%" style="stop-color:#ffffff;stop-opacity:0" />
    </linearGradient>
    <filter id="glow">
      <feGaussianBlur stdDeviation="3" result="coloredBlur"/>
      <feMerge> 
        <feMergeNode in="coloredBlur"/>
        <feMergeNode in="SourceGraphic"/>
      </feMerge>
    </filter>
  </defs>
  
  <!-- 外层六边形 -->
  <polygon points="60,10 95,32.5 95,77.5 60,100 25,77.5 25,32.5" 
           fill="url(#hexGradient)" 
           stroke="#00d4ff" 
           stroke-width="2" 
           filter="url(#glow)"/>
  
  <!-- 内层六边形 -->
  <polygon points="60,20 85,37.5 85,72.5 60,90 35,72.5 35,37.5" 
           fill="none" 
           stroke="url(#innerGradient)" 
           stroke-width="1.5"/>
  
  <!-- 中心六边形 -->
  <polygon points="60,30 75,42.5 75,67.5 60,80 45,67.5 45,42.5" 
           fill="url(#innerGradient)" 
           stroke="#00d4ff" 
           stroke-width="1"/>
  
  <!-- 科技线条 -->
  <g stroke="#00d4ff" stroke-width="1" fill="none" opacity="0.8">
    <!-- 水平线条 -->
    <line x1="35" y1="55" x2="50" y2="55"/>
    <line x1="70" y1="55" x2="85" y2="55"/>
    
    <!-- 对角线条 -->
    <line x1="47" y1="42" x2="55" y2="50"/>
    <line x1="65" y1="50" x2="73" y2="42"/>
    <line x1="47" y1="68" x2="55" y2="60"/>
    <line x1="65" y1="60" x2="73" y2="68"/>
  </g>
  
  <!-- 中心点 -->
  <circle cx="60" cy="55" r="3" fill="#00d4ff" opacity="0.9">
    <animate attributeName="opacity" values="0.5;1;0.5" dur="2s" repeatCount="indefinite"/>
  </circle>
  
  <!-- 装饰性小点 -->
  <circle cx="60" cy="25" r="1.5" fill="#00d4ff" opacity="0.7"/>
  <circle cx="60" cy="85" r="1.5" fill="#00d4ff" opacity="0.7"/>
  <circle cx="30" cy="55" r="1.5" fill="#00d4ff" opacity="0.7"/>
  <circle cx="90" cy="55" r="1.5" fill="#00d4ff" opacity="0.7"/>
</svg>